<mxfile host="Electron" agent="Mozilla/5.0 (Windows NT 10.0; Win64; x64) AppleWebKit/537.36 (KHTML, like Gecko) draw.io/24.5.1 Chrome/124.0.6367.207 Electron/30.0.6 Safari/537.36" modified="2025-01-10T18:14:55.258Z" version="24.5.1" etag="dRIfAotzoAl1BDk_vYnF" type="device" pages="7">
  <diagram name="PÃ¡gina-1" id="ri_MEROV5QMG6eBwSfwp">
    <mxGraphModel dx="2193" dy="1973" grid="1" gridSize="10" guides="1" tooltips="1" connect="1" arrows="1" fold="1" page="1" pageScale="1" pageWidth="827" pageHeight="1169" math="0" shadow="0">
      <root>
        <mxCell id="0" />
        <mxCell id="1" parent="0" />
        <mxCell id="JajMp29hIvE_ohuQEKl1-1" value="Farmer" style="shape=umlActor;verticalLabelPosition=bottom;verticalAlign=top;html=1;outlineConnect=0;rounded=1;" parent="1" vertex="1">
          <mxGeometry y="1040" width="30" height="60" as="geometry" />
        </mxCell>
        <mxCell id="JajMp29hIvE_ohuQEKl1-3" value="Fire Detection System" style="shape=umlFrame;whiteSpace=wrap;html=1;pointerEvents=0;recursiveResize=0;container=1;collapsible=0;width=160;rounded=1;" parent="1" vertex="1">
          <mxGeometry x="500" y="50" width="280" height="470" as="geometry" />
        </mxCell>
        <mxCell id="JajMp29hIvE_ohuQEKl1-2" value="Sensor Alert Transmission" style="ellipse;whiteSpace=wrap;html=1;rounded=1;" parent="JajMp29hIvE_ohuQEKl1-3" vertex="1">
          <mxGeometry x="70" y="40" width="140" height="70" as="geometry" />
        </mxCell>
        <mxCell id="JajMp29hIvE_ohuQEKl1-4" value="Smoke Detection" style="ellipse;whiteSpace=wrap;html=1;rounded=1;" parent="JajMp29hIvE_ohuQEKl1-3" vertex="1">
          <mxGeometry x="70" y="128" width="140" height="70" as="geometry" />
        </mxCell>
        <mxCell id="JajMp29hIvE_ohuQEKl1-5" value="Automatic Sprinkler Activation" style="ellipse;whiteSpace=wrap;html=1;rounded=1;" parent="JajMp29hIvE_ohuQEKl1-3" vertex="1">
          <mxGeometry x="70" y="215" width="140" height="70" as="geometry" />
        </mxCell>
        <mxCell id="JajMp29hIvE_ohuQEKl1-6" value="Temperature Change Detection" style="ellipse;whiteSpace=wrap;html=1;rounded=1;" parent="JajMp29hIvE_ohuQEKl1-3" vertex="1">
          <mxGeometry x="70" y="303" width="140" height="70" as="geometry" />
        </mxCell>
        <mxCell id="JajMp29hIvE_ohuQEKl1-7" value="Manual Sprinkler Activation" style="ellipse;whiteSpace=wrap;html=1;rounded=1;" parent="JajMp29hIvE_ohuQEKl1-3" vertex="1">
          <mxGeometry x="70" y="390" width="140" height="70" as="geometry" />
        </mxCell>
        <mxCell id="JajMp29hIvE_ohuQEKl1-20" value="User Management System" style="shape=umlFrame;whiteSpace=wrap;html=1;pointerEvents=0;recursiveResize=0;container=1;collapsible=0;width=180;height=30;rounded=1;" parent="1" vertex="1">
          <mxGeometry x="500" y="1010" width="280" height="220" as="geometry" />
        </mxCell>
        <mxCell id="JajMp29hIvE_ohuQEKl1-21" value="Role-based Access Control" style="ellipse;whiteSpace=wrap;html=1;rounded=1;" parent="JajMp29hIvE_ohuQEKl1-20" vertex="1">
          <mxGeometry x="70" y="50" width="140" height="70" as="geometry" />
        </mxCell>
        <mxCell id="JajMp29hIvE_ohuQEKl1-22" value="User Management" style="ellipse;whiteSpace=wrap;html=1;rounded=1;" parent="JajMp29hIvE_ohuQEKl1-20" vertex="1">
          <mxGeometry x="70" y="138" width="140" height="70" as="geometry" />
        </mxCell>
        <mxCell id="JajMp29hIvE_ohuQEKl1-23" value="Alert Notification System" style="shape=umlFrame;whiteSpace=wrap;html=1;pointerEvents=0;recursiveResize=0;container=1;collapsible=0;width=160;rounded=1;" parent="1" vertex="1">
          <mxGeometry x="500" y="-300" width="410" height="290" as="geometry" />
        </mxCell>
        <mxCell id="JajMp29hIvE_ohuQEKl1-24" value="Real-time Notifications" style="ellipse;whiteSpace=wrap;html=1;rounded=1;" parent="JajMp29hIvE_ohuQEKl1-23" vertex="1">
          <mxGeometry x="20" y="40" width="140" height="70" as="geometry" />
        </mxCell>
        <mxCell id="JajMp29hIvE_ohuQEKl1-25" value="Alert Details" style="ellipse;whiteSpace=wrap;html=1;rounded=1;" parent="JajMp29hIvE_ohuQEKl1-23" vertex="1">
          <mxGeometry x="240" y="40" width="140" height="70" as="geometry" />
        </mxCell>
        <mxCell id="JajMp29hIvE_ohuQEKl1-26" value="Custom Alarm Configuration" style="ellipse;whiteSpace=wrap;html=1;rounded=1;" parent="JajMp29hIvE_ohuQEKl1-23" vertex="1">
          <mxGeometry x="20" y="125" width="140" height="70" as="geometry" />
        </mxCell>
        <mxCell id="JajMp29hIvE_ohuQEKl1-27" value="Threshold Customization" style="ellipse;whiteSpace=wrap;html=1;rounded=1;" parent="JajMp29hIvE_ohuQEKl1-23" vertex="1">
          <mxGeometry x="20" y="210" width="140" height="70" as="geometry" />
        </mxCell>
        <mxCell id="JajMp29hIvE_ohuQEKl1-107" value="&amp;lt;&amp;lt;include&amp;gt;&amp;gt;" style="edgeStyle=none;html=1;endArrow=open;verticalAlign=bottom;dashed=1;labelBackgroundColor=none;rounded=1;exitX=1;exitY=0.5;exitDx=0;exitDy=0;entryX=0;entryY=0.5;entryDx=0;entryDy=0;" parent="JajMp29hIvE_ohuQEKl1-23" source="JajMp29hIvE_ohuQEKl1-24" target="JajMp29hIvE_ohuQEKl1-25" edge="1">
          <mxGeometry width="160" relative="1" as="geometry">
            <mxPoint x="150" y="120" as="sourcePoint" />
            <mxPoint x="310" y="120" as="targetPoint" />
          </mxGeometry>
        </mxCell>
        <mxCell id="JajMp29hIvE_ohuQEKl1-35" value="Animal Detection System" style="shape=umlFrame;whiteSpace=wrap;html=1;pointerEvents=0;recursiveResize=0;container=1;collapsible=0;width=160;rounded=1;" parent="1" vertex="1">
          <mxGeometry x="490" y="1260" width="280" height="400" as="geometry" />
        </mxCell>
        <mxCell id="JajMp29hIvE_ohuQEKl1-36" value="Manual Repellent Activation" style="ellipse;whiteSpace=wrap;html=1;rounded=1;" parent="JajMp29hIvE_ohuQEKl1-35" vertex="1">
          <mxGeometry x="70" y="40" width="140" height="70" as="geometry" />
        </mxCell>
        <mxCell id="JajMp29hIvE_ohuQEKl1-37" value="Perimeter Animal Detection" style="ellipse;whiteSpace=wrap;html=1;rounded=1;" parent="JajMp29hIvE_ohuQEKl1-35" vertex="1">
          <mxGeometry x="70" y="128" width="140" height="70" as="geometry" />
        </mxCell>
        <mxCell id="JajMp29hIvE_ohuQEKl1-38" value="Animal Detection Alert" style="ellipse;whiteSpace=wrap;html=1;rounded=1;" parent="JajMp29hIvE_ohuQEKl1-35" vertex="1">
          <mxGeometry x="70" y="215" width="140" height="70" as="geometry" />
        </mxCell>
        <mxCell id="JajMp29hIvE_ohuQEKl1-39" value="Automatic Animal Repellent Activation" style="ellipse;whiteSpace=wrap;html=1;rounded=1;" parent="JajMp29hIvE_ohuQEKl1-35" vertex="1">
          <mxGeometry x="70" y="303" width="140" height="70" as="geometry" />
        </mxCell>
        <mxCell id="JajMp29hIvE_ohuQEKl1-43" value="Weather Monitoring System" style="shape=umlFrame;whiteSpace=wrap;html=1;pointerEvents=0;recursiveResize=0;container=1;collapsible=0;width=180;height=30;rounded=1;" parent="1" vertex="1">
          <mxGeometry x="500" y="-540" width="430" height="200" as="geometry" />
        </mxCell>
        <mxCell id="JajMp29hIvE_ohuQEKl1-44" value="Weather Data" style="ellipse;whiteSpace=wrap;html=1;rounded=1;" parent="JajMp29hIvE_ohuQEKl1-43" vertex="1">
          <mxGeometry x="10" y="65" width="140" height="70" as="geometry" />
        </mxCell>
        <mxCell id="JajMp29hIvE_ohuQEKl1-45" value="Weather History Data" style="ellipse;whiteSpace=wrap;html=1;rounded=1;" parent="JajMp29hIvE_ohuQEKl1-43" vertex="1">
          <mxGeometry x="240" y="15" width="140" height="70" as="geometry" />
        </mxCell>
        <mxCell id="JajMp29hIvE_ohuQEKl1-46" value="Weather Alert Transmission" style="ellipse;whiteSpace=wrap;html=1;rounded=1;" parent="JajMp29hIvE_ohuQEKl1-43" vertex="1">
          <mxGeometry x="240" y="120" width="140" height="70" as="geometry" />
        </mxCell>
        <mxCell id="JajMp29hIvE_ohuQEKl1-118" value="&amp;lt;&amp;lt;include&amp;gt;&amp;gt;" style="edgeStyle=none;html=1;endArrow=open;verticalAlign=bottom;dashed=1;labelBackgroundColor=none;rounded=1;entryX=0;entryY=0.5;entryDx=0;entryDy=0;exitX=1;exitY=0.5;exitDx=0;exitDy=0;" parent="JajMp29hIvE_ohuQEKl1-43" source="JajMp29hIvE_ohuQEKl1-44" target="JajMp29hIvE_ohuQEKl1-45" edge="1">
          <mxGeometry x="-0.3774" y="17" width="160" relative="1" as="geometry">
            <mxPoint x="-90" y="320" as="sourcePoint" />
            <mxPoint x="70" y="320" as="targetPoint" />
            <mxPoint as="offset" />
          </mxGeometry>
        </mxCell>
        <mxCell id="JajMp29hIvE_ohuQEKl1-119" value="&amp;lt;&amp;lt;include&amp;gt;&amp;gt;" style="edgeStyle=none;html=1;endArrow=open;verticalAlign=bottom;dashed=1;labelBackgroundColor=none;rounded=1;exitX=1;exitY=0.5;exitDx=0;exitDy=0;entryX=0;entryY=0.5;entryDx=0;entryDy=0;" parent="JajMp29hIvE_ohuQEKl1-43" edge="1">
          <mxGeometry x="-0.0301" y="-26" width="160" relative="1" as="geometry">
            <mxPoint x="150" y="101" as="sourcePoint" />
            <mxPoint x="240" y="156" as="targetPoint" />
            <mxPoint as="offset" />
          </mxGeometry>
        </mxCell>
        <mxCell id="JajMp29hIvE_ohuQEKl1-47" value="Data Management System" style="shape=umlFrame;whiteSpace=wrap;html=1;pointerEvents=0;recursiveResize=0;container=1;collapsible=0;width=180;height=30;rounded=1;" parent="1" vertex="1">
          <mxGeometry x="470" y="760" width="430" height="130" as="geometry" />
        </mxCell>
        <mxCell id="JajMp29hIvE_ohuQEKl1-48" value="Sensor Data Storage" style="ellipse;whiteSpace=wrap;html=1;rounded=1;" parent="JajMp29hIvE_ohuQEKl1-47" vertex="1">
          <mxGeometry x="10" y="45" width="140" height="70" as="geometry" />
        </mxCell>
        <mxCell id="JajMp29hIvE_ohuQEKl1-49" value="Historical Data Visualization" style="ellipse;whiteSpace=wrap;html=1;rounded=1;" parent="JajMp29hIvE_ohuQEKl1-47" vertex="1">
          <mxGeometry x="280" y="45" width="140" height="70" as="geometry" />
        </mxCell>
        <mxCell id="JajMp29hIvE_ohuQEKl1-116" value="&amp;lt;&amp;lt;include&amp;gt;&amp;gt;" style="edgeStyle=none;html=1;endArrow=open;verticalAlign=bottom;dashed=1;labelBackgroundColor=none;rounded=1;exitX=1;exitY=0.5;exitDx=0;exitDy=0;" parent="JajMp29hIvE_ohuQEKl1-47" source="JajMp29hIvE_ohuQEKl1-48" target="JajMp29hIvE_ohuQEKl1-49" edge="1">
          <mxGeometry width="160" relative="1" as="geometry">
            <mxPoint x="-370" y="370" as="sourcePoint" />
            <mxPoint x="-210" y="370" as="targetPoint" />
          </mxGeometry>
        </mxCell>
        <mxCell id="JajMp29hIvE_ohuQEKl1-50" value="Energy Management System" style="shape=umlFrame;whiteSpace=wrap;html=1;pointerEvents=0;recursiveResize=0;container=1;collapsible=0;width=180;height=30;rounded=1;" parent="1" vertex="1">
          <mxGeometry x="500" y="-860" width="460" height="276" as="geometry" />
        </mxCell>
        <mxCell id="nQvEv85T35Dn_dGKa5aQ-1" value="Battery Data" style="ellipse;whiteSpace=wrap;html=1;rounded=1;" vertex="1" parent="JajMp29hIvE_ohuQEKl1-50">
          <mxGeometry x="20" y="150" width="140" height="70" as="geometry" />
        </mxCell>
        <mxCell id="nQvEv85T35Dn_dGKa5aQ-2" value="Send Battery Alert" style="ellipse;whiteSpace=wrap;html=1;rounded=1;" vertex="1" parent="JajMp29hIvE_ohuQEKl1-50">
          <mxGeometry x="270" y="150" width="140" height="70" as="geometry" />
        </mxCell>
        <mxCell id="nQvEv85T35Dn_dGKa5aQ-3" value="&amp;lt;&amp;lt;include&amp;gt;&amp;gt;" style="edgeStyle=none;html=1;endArrow=open;verticalAlign=bottom;dashed=1;labelBackgroundColor=none;rounded=1;exitX=1;exitY=0.5;exitDx=0;exitDy=0;entryX=0;entryY=0.5;entryDx=0;entryDy=0;" edge="1" parent="JajMp29hIvE_ohuQEKl1-50" source="nQvEv85T35Dn_dGKa5aQ-1" target="nQvEv85T35Dn_dGKa5aQ-2">
          <mxGeometry width="160" relative="1" as="geometry">
            <mxPoint x="-80" y="310" as="sourcePoint" />
            <mxPoint x="80" y="310" as="targetPoint" />
          </mxGeometry>
        </mxCell>
        <mxCell id="JajMp29hIvE_ohuQEKl1-54" value="Goverment Organization" style="shape=umlActor;verticalLabelPosition=bottom;verticalAlign=top;html=1;outlineConnect=0;rounded=1;" parent="1" vertex="1">
          <mxGeometry x="190" y="-520" width="30" height="60" as="geometry" />
        </mxCell>
        <mxCell id="JajMp29hIvE_ohuQEKl1-65" value="Agricultural Consultants" style="shape=umlActor;verticalLabelPosition=bottom;verticalAlign=top;html=1;outlineConnect=0;rounded=1;" parent="1" vertex="1">
          <mxGeometry x="384" y="960" width="30" height="60" as="geometry" />
        </mxCell>
        <mxCell id="JajMp29hIvE_ohuQEKl1-82" value="" style="edgeStyle=none;html=1;endArrow=none;verticalAlign=bottom;rounded=1;entryX=0;entryY=0.5;entryDx=0;entryDy=0;" parent="1" source="JajMp29hIvE_ohuQEKl1-1" target="JajMp29hIvE_ohuQEKl1-4" edge="1">
          <mxGeometry width="160" relative="1" as="geometry">
            <mxPoint x="270" y="330" as="sourcePoint" />
            <mxPoint x="720" y="250" as="targetPoint" />
          </mxGeometry>
        </mxCell>
        <mxCell id="JajMp29hIvE_ohuQEKl1-83" value="" style="edgeStyle=none;html=1;endArrow=none;verticalAlign=bottom;rounded=1;entryX=0;entryY=0.5;entryDx=0;entryDy=0;" parent="1" source="JajMp29hIvE_ohuQEKl1-1" target="JajMp29hIvE_ohuQEKl1-5" edge="1">
          <mxGeometry width="160" relative="1" as="geometry">
            <mxPoint x="560" y="250" as="sourcePoint" />
            <mxPoint x="720" y="250" as="targetPoint" />
          </mxGeometry>
        </mxCell>
        <mxCell id="JajMp29hIvE_ohuQEKl1-86" value="" style="edgeStyle=none;html=1;endArrow=none;verticalAlign=bottom;rounded=1;entryX=0;entryY=0.5;entryDx=0;entryDy=0;" parent="1" source="JajMp29hIvE_ohuQEKl1-1" target="JajMp29hIvE_ohuQEKl1-6" edge="1">
          <mxGeometry width="160" relative="1" as="geometry">
            <mxPoint x="560" y="250" as="sourcePoint" />
            <mxPoint x="720" y="250" as="targetPoint" />
          </mxGeometry>
        </mxCell>
        <mxCell id="JajMp29hIvE_ohuQEKl1-87" value="" style="edgeStyle=none;html=1;endArrow=none;verticalAlign=bottom;rounded=1;entryX=0;entryY=0.5;entryDx=0;entryDy=0;" parent="1" source="JajMp29hIvE_ohuQEKl1-1" target="JajMp29hIvE_ohuQEKl1-7" edge="1">
          <mxGeometry width="160" relative="1" as="geometry">
            <mxPoint x="240" y="360" as="sourcePoint" />
            <mxPoint x="400" y="360" as="targetPoint" />
          </mxGeometry>
        </mxCell>
        <mxCell id="JajMp29hIvE_ohuQEKl1-96" value="" style="edgeStyle=none;html=1;endArrow=none;verticalAlign=bottom;rounded=1;entryX=0;entryY=0.5;entryDx=0;entryDy=0;" parent="1" source="JajMp29hIvE_ohuQEKl1-1" target="JajMp29hIvE_ohuQEKl1-21" edge="1">
          <mxGeometry width="160" relative="1" as="geometry">
            <mxPoint x="580" y="890" as="sourcePoint" />
            <mxPoint x="740" y="890" as="targetPoint" />
          </mxGeometry>
        </mxCell>
        <mxCell id="JajMp29hIvE_ohuQEKl1-97" value="" style="edgeStyle=none;html=1;endArrow=none;verticalAlign=bottom;rounded=1;entryX=0;entryY=0.5;entryDx=0;entryDy=0;" parent="1" source="JajMp29hIvE_ohuQEKl1-1" target="JajMp29hIvE_ohuQEKl1-22" edge="1">
          <mxGeometry width="160" relative="1" as="geometry">
            <mxPoint x="580" y="890" as="sourcePoint" />
            <mxPoint x="740" y="890" as="targetPoint" />
          </mxGeometry>
        </mxCell>
        <mxCell id="JajMp29hIvE_ohuQEKl1-100" value="" style="edgeStyle=none;html=1;endArrow=none;verticalAlign=bottom;rounded=1;entryX=0;entryY=0.5;entryDx=0;entryDy=0;" parent="1" source="JajMp29hIvE_ohuQEKl1-1" target="JajMp29hIvE_ohuQEKl1-36" edge="1">
          <mxGeometry width="160" relative="1" as="geometry">
            <mxPoint x="300" y="1580" as="sourcePoint" />
            <mxPoint x="460" y="1580" as="targetPoint" />
          </mxGeometry>
        </mxCell>
        <mxCell id="JajMp29hIvE_ohuQEKl1-101" value="" style="edgeStyle=none;html=1;endArrow=none;verticalAlign=bottom;rounded=1;entryX=0;entryY=0.5;entryDx=0;entryDy=0;" parent="1" source="JajMp29hIvE_ohuQEKl1-1" target="JajMp29hIvE_ohuQEKl1-37" edge="1">
          <mxGeometry width="160" relative="1" as="geometry">
            <mxPoint x="220" y="1520" as="sourcePoint" />
            <mxPoint x="380" y="1520" as="targetPoint" />
          </mxGeometry>
        </mxCell>
        <mxCell id="JajMp29hIvE_ohuQEKl1-102" value="" style="edgeStyle=none;html=1;endArrow=none;verticalAlign=bottom;rounded=1;entryX=0;entryY=0.5;entryDx=0;entryDy=0;" parent="1" source="JajMp29hIvE_ohuQEKl1-1" target="JajMp29hIvE_ohuQEKl1-38" edge="1">
          <mxGeometry width="160" relative="1" as="geometry">
            <mxPoint x="160" y="1510" as="sourcePoint" />
            <mxPoint x="320" y="1510" as="targetPoint" />
          </mxGeometry>
        </mxCell>
        <mxCell id="JajMp29hIvE_ohuQEKl1-103" value="" style="edgeStyle=none;html=1;endArrow=none;verticalAlign=bottom;rounded=1;entryX=0;entryY=0.5;entryDx=0;entryDy=0;" parent="1" source="JajMp29hIvE_ohuQEKl1-1" target="JajMp29hIvE_ohuQEKl1-39" edge="1">
          <mxGeometry width="160" relative="1" as="geometry">
            <mxPoint x="260" y="1770" as="sourcePoint" />
            <mxPoint x="420" y="1770" as="targetPoint" />
          </mxGeometry>
        </mxCell>
        <mxCell id="JajMp29hIvE_ohuQEKl1-108" value="" style="edgeStyle=none;html=1;endArrow=none;verticalAlign=bottom;rounded=1;entryX=0;entryY=0.5;entryDx=0;entryDy=0;" parent="1" source="JajMp29hIvE_ohuQEKl1-1" target="JajMp29hIvE_ohuQEKl1-24" edge="1">
          <mxGeometry width="160" relative="1" as="geometry">
            <mxPoint x="-20" y="1060" as="sourcePoint" />
            <mxPoint x="340" y="30" as="targetPoint" />
          </mxGeometry>
        </mxCell>
        <mxCell id="JajMp29hIvE_ohuQEKl1-109" value="" style="edgeStyle=none;html=1;endArrow=none;verticalAlign=bottom;rounded=1;entryX=0;entryY=0.5;entryDx=0;entryDy=0;" parent="1" source="JajMp29hIvE_ohuQEKl1-1" target="JajMp29hIvE_ohuQEKl1-26" edge="1">
          <mxGeometry width="160" relative="1" as="geometry">
            <mxPoint x="80" y="180" as="sourcePoint" />
            <mxPoint x="240" y="180" as="targetPoint" />
          </mxGeometry>
        </mxCell>
        <mxCell id="JajMp29hIvE_ohuQEKl1-110" value="" style="edgeStyle=none;html=1;endArrow=none;verticalAlign=bottom;rounded=1;entryX=0;entryY=0.5;entryDx=0;entryDy=0;" parent="1" source="JajMp29hIvE_ohuQEKl1-1" target="JajMp29hIvE_ohuQEKl1-27" edge="1">
          <mxGeometry width="160" relative="1" as="geometry">
            <mxPoint x="100" y="240" as="sourcePoint" />
            <mxPoint x="250" y="240" as="targetPoint" />
          </mxGeometry>
        </mxCell>
        <mxCell id="JajMp29hIvE_ohuQEKl1-122" value="" style="html=1;endArrow=none;verticalAlign=bottom;rounded=1;exitX=0;exitY=0.5;exitDx=0;exitDy=0;" parent="1" source="JajMp29hIvE_ohuQEKl1-44" target="JajMp29hIvE_ohuQEKl1-54" edge="1">
          <mxGeometry width="160" relative="1" as="geometry">
            <mxPoint x="720" y="-250" as="sourcePoint" />
            <mxPoint x="880" y="-250" as="targetPoint" />
          </mxGeometry>
        </mxCell>
        <mxCell id="JajMp29hIvE_ohuQEKl1-124" value="" style="edgeStyle=none;html=1;endArrow=none;verticalAlign=bottom;rounded=1;exitX=0;exitY=0.5;exitDx=0;exitDy=0;" parent="1" source="JajMp29hIvE_ohuQEKl1-44" target="JajMp29hIvE_ohuQEKl1-1" edge="1">
          <mxGeometry width="160" relative="1" as="geometry">
            <mxPoint x="720" y="-150" as="sourcePoint" />
            <mxPoint x="880" y="-150" as="targetPoint" />
          </mxGeometry>
        </mxCell>
        <mxCell id="JajMp29hIvE_ohuQEKl1-129" value="" style="edgeStyle=none;html=1;endArrow=none;verticalAlign=bottom;rounded=1;entryX=0;entryY=0.5;entryDx=0;entryDy=0;" parent="1" source="JajMp29hIvE_ohuQEKl1-65" target="JajMp29hIvE_ohuQEKl1-48" edge="1">
          <mxGeometry width="160" relative="1" as="geometry">
            <mxPoint x="1040" y="1410" as="sourcePoint" />
            <mxPoint x="1200" y="1410" as="targetPoint" />
          </mxGeometry>
        </mxCell>
        <mxCell id="JajMp29hIvE_ohuQEKl1-133" value="&amp;lt;&amp;lt;include&amp;gt;&amp;gt;" style="edgeStyle=none;html=1;endArrow=open;verticalAlign=bottom;dashed=1;labelBackgroundColor=none;rounded=1;entryX=0.736;entryY=0.971;entryDx=0;entryDy=0;exitX=1;exitY=0;exitDx=0;exitDy=0;entryPerimeter=0;" parent="1" source="JajMp29hIvE_ohuQEKl1-2" target="JajMp29hIvE_ohuQEKl1-24" edge="1">
          <mxGeometry x="-0.0658" y="-30" width="160" relative="1" as="geometry">
            <mxPoint x="700.5" y="90.13" as="sourcePoint" />
            <mxPoint x="699.9974746830585" y="-200.12126265847076" as="targetPoint" />
            <Array as="points">
              <mxPoint x="680" y="-160" />
            </Array>
            <mxPoint as="offset" />
          </mxGeometry>
        </mxCell>
        <mxCell id="JajMp29hIvE_ohuQEKl1-134" value="&amp;lt;&amp;lt;include&amp;gt;&amp;gt;" style="edgeStyle=elbowEdgeStyle;html=1;endArrow=open;verticalAlign=bottom;dashed=1;labelBackgroundColor=none;rounded=1;exitX=1;exitY=0.5;exitDx=0;exitDy=0;entryX=1;entryY=0;entryDx=0;entryDy=0;" parent="1" source="JajMp29hIvE_ohuQEKl1-38" target="JajMp29hIvE_ohuQEKl1-24" edge="1">
          <mxGeometry width="160" relative="1" as="geometry">
            <mxPoint x="921.5" y="1739.75" as="sourcePoint" />
            <mxPoint x="889.9974746830585" y="-269.99873734152925" as="targetPoint" />
            <Array as="points">
              <mxPoint x="1200.5" y="-300.25" />
              <mxPoint x="1491.5" y="749.75" />
            </Array>
          </mxGeometry>
        </mxCell>
        <mxCell id="JajMp29hIvE_ohuQEKl1-139" value="" style="edgeStyle=orthogonalEdgeStyle;html=1;endArrow=block;endFill=0;endSize=12;verticalAlign=bottom;rounded=1;exitX=1;exitY=0.5;exitDx=0;exitDy=0;" parent="1" source="JajMp29hIvE_ohuQEKl1-6" target="JajMp29hIvE_ohuQEKl1-48" edge="1">
          <mxGeometry width="160" relative="1" as="geometry">
            <mxPoint x="980" y="580" as="sourcePoint" />
            <mxPoint x="1140" y="580" as="targetPoint" />
          </mxGeometry>
        </mxCell>
        <mxCell id="nQvEv85T35Dn_dGKa5aQ-5" value="&amp;lt;&amp;lt;include&amp;gt;&amp;gt;" style="edgeStyle=orthogonalEdgeStyle;html=1;endArrow=open;verticalAlign=bottom;dashed=1;labelBackgroundColor=none;rounded=0;exitX=1;exitY=0.5;exitDx=0;exitDy=0;" edge="1" parent="1" source="nQvEv85T35Dn_dGKa5aQ-2" target="JajMp29hIvE_ohuQEKl1-24">
          <mxGeometry width="160" relative="1" as="geometry">
            <mxPoint x="980" y="-310" as="sourcePoint" />
            <mxPoint x="1140" y="-310" as="targetPoint" />
            <Array as="points">
              <mxPoint x="920" y="-675" />
              <mxPoint x="920" y="-450" />
              <mxPoint x="1090" y="-450" />
              <mxPoint x="1090" y="-200" />
            </Array>
          </mxGeometry>
        </mxCell>
        <mxCell id="nQvEv85T35Dn_dGKa5aQ-8" value="" style="endArrow=none;html=1;rounded=0;entryX=0;entryY=0.5;entryDx=0;entryDy=0;" edge="1" parent="1" source="JajMp29hIvE_ohuQEKl1-1" target="nQvEv85T35Dn_dGKa5aQ-1">
          <mxGeometry width="50" height="50" relative="1" as="geometry">
            <mxPoint x="580" y="-650" as="sourcePoint" />
            <mxPoint x="630" y="-700" as="targetPoint" />
          </mxGeometry>
        </mxCell>
        <mxCell id="nQvEv85T35Dn_dGKa5aQ-10" value="" style="endArrow=none;html=1;rounded=0;entryX=0;entryY=0.5;entryDx=0;entryDy=0;" edge="1" parent="1" source="JajMp29hIvE_ohuQEKl1-1" target="JajMp29hIvE_ohuQEKl1-48">
          <mxGeometry width="50" height="50" relative="1" as="geometry">
            <mxPoint x="540" y="990" as="sourcePoint" />
            <mxPoint x="590" y="940" as="targetPoint" />
          </mxGeometry>
        </mxCell>
        <mxCell id="nQvEv85T35Dn_dGKa5aQ-13" value="Soil Moisture Monitoring System" style="shape=umlFrame;whiteSpace=wrap;html=1;pointerEvents=0;recursiveResize=0;container=1;collapsible=0;width=180;height=30;rounded=1;" vertex="1" parent="1">
          <mxGeometry x="480" y="1690" width="280" height="220" as="geometry" />
        </mxCell>
        <mxCell id="nQvEv85T35Dn_dGKa5aQ-14" value="Soil Moisture Alert" style="ellipse;whiteSpace=wrap;html=1;rounded=1;" vertex="1" parent="nQvEv85T35Dn_dGKa5aQ-13">
          <mxGeometry x="70" y="50" width="140" height="70" as="geometry" />
        </mxCell>
        <mxCell id="nQvEv85T35Dn_dGKa5aQ-15" value="Soilt Moisture Monitoring" style="ellipse;whiteSpace=wrap;html=1;rounded=1;" vertex="1" parent="nQvEv85T35Dn_dGKa5aQ-13">
          <mxGeometry x="70" y="138" width="140" height="70" as="geometry" />
        </mxCell>
        <mxCell id="nQvEv85T35Dn_dGKa5aQ-17" value="" style="edgeStyle=none;html=1;endArrow=none;verticalAlign=bottom;rounded=0;entryX=0;entryY=0.5;entryDx=0;entryDy=0;" edge="1" parent="1" source="JajMp29hIvE_ohuQEKl1-1" target="nQvEv85T35Dn_dGKa5aQ-14">
          <mxGeometry width="160" relative="1" as="geometry">
            <mxPoint x="480" y="1740" as="sourcePoint" />
            <mxPoint x="640" y="1740" as="targetPoint" />
          </mxGeometry>
        </mxCell>
        <mxCell id="nQvEv85T35Dn_dGKa5aQ-18" value="" style="edgeStyle=none;html=1;endArrow=none;verticalAlign=bottom;rounded=0;entryX=0;entryY=0.5;entryDx=0;entryDy=0;" edge="1" parent="1" source="JajMp29hIvE_ohuQEKl1-1" target="nQvEv85T35Dn_dGKa5aQ-15">
          <mxGeometry width="160" relative="1" as="geometry">
            <mxPoint x="90" y="1620" as="sourcePoint" />
            <mxPoint x="250" y="1620" as="targetPoint" />
          </mxGeometry>
        </mxCell>
        <mxCell id="nQvEv85T35Dn_dGKa5aQ-19" value="" style="edgeStyle=elbowEdgeStyle;html=1;endArrow=block;endFill=0;endSize=12;verticalAlign=bottom;rounded=0;entryX=0.5;entryY=1;entryDx=0;entryDy=0;exitX=1;exitY=0.5;exitDx=0;exitDy=0;" edge="1" parent="1" source="nQvEv85T35Dn_dGKa5aQ-15" target="JajMp29hIvE_ohuQEKl1-48">
          <mxGeometry width="160" relative="1" as="geometry">
            <mxPoint x="970" y="1000" as="sourcePoint" />
            <mxPoint x="1130" y="1000" as="targetPoint" />
            <Array as="points">
              <mxPoint x="1080" y="1340" />
            </Array>
          </mxGeometry>
        </mxCell>
        <mxCell id="cNtVYPMMwUXMNJ8kkJkO-2" value="&amp;lt;&amp;lt;include&amp;gt;&amp;gt;" style="edgeStyle=elbowEdgeStyle;html=1;endArrow=open;verticalAlign=bottom;dashed=1;labelBackgroundColor=none;rounded=0;exitX=1;exitY=0.5;exitDx=0;exitDy=0;entryX=0.941;entryY=0.712;entryDx=0;entryDy=0;entryPerimeter=0;" edge="1" parent="1" source="nQvEv85T35Dn_dGKa5aQ-14" target="JajMp29hIvE_ohuQEKl1-24">
          <mxGeometry width="160" relative="1" as="geometry">
            <mxPoint x="840" y="1410" as="sourcePoint" />
            <mxPoint x="980" y="70" as="targetPoint" />
            <Array as="points">
              <mxPoint x="1280" y="760" />
            </Array>
          </mxGeometry>
        </mxCell>
      </root>
    </mxGraphModel>
  </diagram>
  <diagram name="Use Case 6" id="51DSX6qLiFUbYaG6V8G6">
    <mxGraphModel dx="1366" dy="1973" grid="1" gridSize="10" guides="1" tooltips="1" connect="1" arrows="1" fold="1" page="1" pageScale="1" pageWidth="827" pageHeight="1169" math="0" shadow="0">
      <root>
        <mxCell id="H0fH81o4xhTyxG1QY5pc-0" />
        <mxCell id="H0fH81o4xhTyxG1QY5pc-1" parent="H0fH81o4xhTyxG1QY5pc-0" />
        <mxCell id="H0fH81o4xhTyxG1QY5pc-2" value="Farmer" style="shape=umlActor;verticalLabelPosition=bottom;verticalAlign=top;html=1;outlineConnect=0;rounded=1;" vertex="1" parent="H0fH81o4xhTyxG1QY5pc-1">
          <mxGeometry x="350" y="-420" width="30" height="60" as="geometry" />
        </mxCell>
        <mxCell id="H0fH81o4xhTyxG1QY5pc-23" value="Weather Monitoring System" style="shape=umlFrame;whiteSpace=wrap;html=1;pointerEvents=0;recursiveResize=0;container=1;collapsible=0;width=180;height=30;rounded=1;" vertex="1" parent="H0fH81o4xhTyxG1QY5pc-1">
          <mxGeometry x="500" y="-540" width="430" height="200" as="geometry" />
        </mxCell>
        <mxCell id="H0fH81o4xhTyxG1QY5pc-24" value="Weather Data" style="ellipse;whiteSpace=wrap;html=1;rounded=1;" vertex="1" parent="H0fH81o4xhTyxG1QY5pc-23">
          <mxGeometry x="10" y="65" width="140" height="70" as="geometry" />
        </mxCell>
        <mxCell id="H0fH81o4xhTyxG1QY5pc-25" value="Weather History Data" style="ellipse;whiteSpace=wrap;html=1;rounded=1;" vertex="1" parent="H0fH81o4xhTyxG1QY5pc-23">
          <mxGeometry x="240" y="15" width="140" height="70" as="geometry" />
        </mxCell>
        <mxCell id="H0fH81o4xhTyxG1QY5pc-26" value="Weather Alert Transmission" style="ellipse;whiteSpace=wrap;html=1;rounded=1;" vertex="1" parent="H0fH81o4xhTyxG1QY5pc-23">
          <mxGeometry x="240" y="120" width="140" height="70" as="geometry" />
        </mxCell>
        <mxCell id="H0fH81o4xhTyxG1QY5pc-27" value="&amp;lt;&amp;lt;include&amp;gt;&amp;gt;" style="edgeStyle=none;html=1;endArrow=open;verticalAlign=bottom;dashed=1;labelBackgroundColor=none;rounded=1;entryX=0;entryY=0.5;entryDx=0;entryDy=0;exitX=1;exitY=0.5;exitDx=0;exitDy=0;" edge="1" parent="H0fH81o4xhTyxG1QY5pc-23" source="H0fH81o4xhTyxG1QY5pc-24" target="H0fH81o4xhTyxG1QY5pc-25">
          <mxGeometry x="-0.3774" y="17" width="160" relative="1" as="geometry">
            <mxPoint x="-90" y="320" as="sourcePoint" />
            <mxPoint x="70" y="320" as="targetPoint" />
            <mxPoint as="offset" />
          </mxGeometry>
        </mxCell>
        <mxCell id="H0fH81o4xhTyxG1QY5pc-28" value="&amp;lt;&amp;lt;include&amp;gt;&amp;gt;" style="edgeStyle=none;html=1;endArrow=open;verticalAlign=bottom;dashed=1;labelBackgroundColor=none;rounded=1;exitX=1;exitY=0.5;exitDx=0;exitDy=0;entryX=0;entryY=0.5;entryDx=0;entryDy=0;" edge="1" parent="H0fH81o4xhTyxG1QY5pc-23">
          <mxGeometry x="-0.0301" y="-26" width="160" relative="1" as="geometry">
            <mxPoint x="150" y="101" as="sourcePoint" />
            <mxPoint x="240" y="156" as="targetPoint" />
            <mxPoint as="offset" />
          </mxGeometry>
        </mxCell>
        <mxCell id="H0fH81o4xhTyxG1QY5pc-37" value="Goverment Organization" style="shape=umlActor;verticalLabelPosition=bottom;verticalAlign=top;html=1;outlineConnect=0;rounded=1;" vertex="1" parent="H0fH81o4xhTyxG1QY5pc-1">
          <mxGeometry x="350" y="-525" width="30" height="60" as="geometry" />
        </mxCell>
        <mxCell id="H0fH81o4xhTyxG1QY5pc-52" value="" style="html=1;endArrow=none;verticalAlign=bottom;rounded=1;exitX=0;exitY=0.5;exitDx=0;exitDy=0;" edge="1" parent="H0fH81o4xhTyxG1QY5pc-1" source="H0fH81o4xhTyxG1QY5pc-24" target="H0fH81o4xhTyxG1QY5pc-37">
          <mxGeometry width="160" relative="1" as="geometry">
            <mxPoint x="720" y="-250" as="sourcePoint" />
            <mxPoint x="880" y="-250" as="targetPoint" />
          </mxGeometry>
        </mxCell>
        <mxCell id="H0fH81o4xhTyxG1QY5pc-53" value="" style="edgeStyle=none;html=1;endArrow=none;verticalAlign=bottom;rounded=1;exitX=0;exitY=0.5;exitDx=0;exitDy=0;" edge="1" parent="H0fH81o4xhTyxG1QY5pc-1" source="H0fH81o4xhTyxG1QY5pc-24" target="H0fH81o4xhTyxG1QY5pc-2">
          <mxGeometry width="160" relative="1" as="geometry">
            <mxPoint x="720" y="-150" as="sourcePoint" />
            <mxPoint x="880" y="-150" as="targetPoint" />
          </mxGeometry>
        </mxCell>
      </root>
    </mxGraphModel>
  </diagram>
  <diagram name="Use Case 5" id="CcjIhAFjZv87oXUe47US">
    <mxGraphModel dx="1434" dy="2005" grid="1" gridSize="10" guides="1" tooltips="1" connect="1" arrows="1" fold="1" page="1" pageScale="1" pageWidth="827" pageHeight="1169" math="0" shadow="0">
      <root>
        <mxCell id="2CrDhLdBLynUwAJwVgot-0" />
        <mxCell id="2CrDhLdBLynUwAJwVgot-1" parent="2CrDhLdBLynUwAJwVgot-0" />
        <mxCell id="2CrDhLdBLynUwAJwVgot-2" value="Farmer" style="shape=umlActor;verticalLabelPosition=bottom;verticalAlign=top;html=1;outlineConnect=0;rounded=1;" parent="2CrDhLdBLynUwAJwVgot-1" vertex="1">
          <mxGeometry x="360" y="-280" width="30" height="60" as="geometry" />
        </mxCell>
        <mxCell id="2CrDhLdBLynUwAJwVgot-12" value="Alert Notification System" style="shape=umlFrame;whiteSpace=wrap;html=1;pointerEvents=0;recursiveResize=0;container=1;collapsible=0;width=160;rounded=1;" parent="2CrDhLdBLynUwAJwVgot-1" vertex="1">
          <mxGeometry x="500" y="-300" width="410" height="290" as="geometry" />
        </mxCell>
        <mxCell id="2CrDhLdBLynUwAJwVgot-13" value="Real-time Notifications" style="ellipse;whiteSpace=wrap;html=1;rounded=1;" parent="2CrDhLdBLynUwAJwVgot-12" vertex="1">
          <mxGeometry x="20" y="40" width="140" height="70" as="geometry" />
        </mxCell>
        <mxCell id="2CrDhLdBLynUwAJwVgot-14" value="Alert Details" style="ellipse;whiteSpace=wrap;html=1;rounded=1;" parent="2CrDhLdBLynUwAJwVgot-12" vertex="1">
          <mxGeometry x="240" y="40" width="140" height="70" as="geometry" />
        </mxCell>
        <mxCell id="2CrDhLdBLynUwAJwVgot-15" value="Custom Alarm Configuration" style="ellipse;whiteSpace=wrap;html=1;rounded=1;" parent="2CrDhLdBLynUwAJwVgot-12" vertex="1">
          <mxGeometry x="20" y="125" width="140" height="70" as="geometry" />
        </mxCell>
        <mxCell id="2CrDhLdBLynUwAJwVgot-16" value="Threshold Customization" style="ellipse;whiteSpace=wrap;html=1;rounded=1;" parent="2CrDhLdBLynUwAJwVgot-12" vertex="1">
          <mxGeometry x="20" y="210" width="140" height="70" as="geometry" />
        </mxCell>
        <mxCell id="2CrDhLdBLynUwAJwVgot-17" value="&amp;lt;&amp;lt;include&amp;gt;&amp;gt;" style="edgeStyle=none;html=1;endArrow=open;verticalAlign=bottom;dashed=1;labelBackgroundColor=none;rounded=1;exitX=1;exitY=0.5;exitDx=0;exitDy=0;entryX=0;entryY=0.5;entryDx=0;entryDy=0;" parent="2CrDhLdBLynUwAJwVgot-12" source="2CrDhLdBLynUwAJwVgot-13" target="2CrDhLdBLynUwAJwVgot-14" edge="1">
          <mxGeometry width="160" relative="1" as="geometry">
            <mxPoint x="150" y="120" as="sourcePoint" />
            <mxPoint x="310" y="120" as="targetPoint" />
          </mxGeometry>
        </mxCell>
        <mxCell id="2CrDhLdBLynUwAJwVgot-33" value="Energy Management System" style="shape=umlFrame;whiteSpace=wrap;html=1;pointerEvents=0;recursiveResize=0;container=1;collapsible=0;width=180;height=30;rounded=1;" parent="2CrDhLdBLynUwAJwVgot-1" vertex="1">
          <mxGeometry x="500" y="-520" width="460" height="166" as="geometry" />
        </mxCell>
        <mxCell id="2CrDhLdBLynUwAJwVgot-34" value="Battery Data" style="ellipse;whiteSpace=wrap;html=1;rounded=1;" parent="2CrDhLdBLynUwAJwVgot-33" vertex="1">
          <mxGeometry x="30" y="70" width="140" height="70" as="geometry" />
        </mxCell>
        <mxCell id="2CrDhLdBLynUwAJwVgot-35" value="Send Battery Alert" style="ellipse;whiteSpace=wrap;html=1;rounded=1;" parent="2CrDhLdBLynUwAJwVgot-33" vertex="1">
          <mxGeometry x="280" y="70" width="140" height="70" as="geometry" />
        </mxCell>
        <mxCell id="2CrDhLdBLynUwAJwVgot-36" value="&amp;lt;&amp;lt;include&amp;gt;&amp;gt;" style="edgeStyle=none;html=1;endArrow=open;verticalAlign=bottom;dashed=1;labelBackgroundColor=none;rounded=1;exitX=1;exitY=0.5;exitDx=0;exitDy=0;entryX=0;entryY=0.5;entryDx=0;entryDy=0;" parent="2CrDhLdBLynUwAJwVgot-33" source="2CrDhLdBLynUwAJwVgot-34" target="2CrDhLdBLynUwAJwVgot-35" edge="1">
          <mxGeometry width="160" relative="1" as="geometry">
            <mxPoint x="-80" y="310" as="sourcePoint" />
            <mxPoint x="80" y="310" as="targetPoint" />
          </mxGeometry>
        </mxCell>
        <mxCell id="2CrDhLdBLynUwAJwVgot-49" value="" style="edgeStyle=none;html=1;endArrow=none;verticalAlign=bottom;rounded=1;entryX=0;entryY=0.5;entryDx=0;entryDy=0;" parent="2CrDhLdBLynUwAJwVgot-1" source="2CrDhLdBLynUwAJwVgot-2" target="2CrDhLdBLynUwAJwVgot-13" edge="1">
          <mxGeometry width="160" relative="1" as="geometry">
            <mxPoint x="-20" y="1060" as="sourcePoint" />
            <mxPoint x="340" y="30" as="targetPoint" />
          </mxGeometry>
        </mxCell>
        <mxCell id="2CrDhLdBLynUwAJwVgot-50" value="" style="edgeStyle=none;html=1;endArrow=none;verticalAlign=bottom;rounded=1;entryX=0;entryY=0.5;entryDx=0;entryDy=0;" parent="2CrDhLdBLynUwAJwVgot-1" source="2CrDhLdBLynUwAJwVgot-2" target="2CrDhLdBLynUwAJwVgot-15" edge="1">
          <mxGeometry width="160" relative="1" as="geometry">
            <mxPoint x="80" y="180" as="sourcePoint" />
            <mxPoint x="240" y="180" as="targetPoint" />
          </mxGeometry>
        </mxCell>
        <mxCell id="2CrDhLdBLynUwAJwVgot-51" value="" style="edgeStyle=none;html=1;endArrow=none;verticalAlign=bottom;rounded=1;entryX=0;entryY=0.5;entryDx=0;entryDy=0;" parent="2CrDhLdBLynUwAJwVgot-1" source="2CrDhLdBLynUwAJwVgot-2" target="2CrDhLdBLynUwAJwVgot-16" edge="1">
          <mxGeometry width="160" relative="1" as="geometry">
            <mxPoint x="100" y="240" as="sourcePoint" />
            <mxPoint x="250" y="240" as="targetPoint" />
          </mxGeometry>
        </mxCell>
        <mxCell id="2CrDhLdBLynUwAJwVgot-58" value="&amp;lt;&amp;lt;include&amp;gt;&amp;gt;" style="html=1;endArrow=open;verticalAlign=bottom;dashed=1;labelBackgroundColor=none;rounded=0;exitX=0.436;exitY=1.014;exitDx=0;exitDy=0;exitPerimeter=0;entryX=1;entryY=0;entryDx=0;entryDy=0;" parent="2CrDhLdBLynUwAJwVgot-1" source="2CrDhLdBLynUwAJwVgot-35" target="2CrDhLdBLynUwAJwVgot-13" edge="1">
          <mxGeometry x="0.0469" y="-10" width="160" relative="1" as="geometry">
            <mxPoint x="980" y="-310" as="sourcePoint" />
            <mxPoint x="1140" y="-310" as="targetPoint" />
            <mxPoint as="offset" />
          </mxGeometry>
        </mxCell>
        <mxCell id="2CrDhLdBLynUwAJwVgot-59" value="" style="endArrow=none;html=1;rounded=0;entryX=0;entryY=0.5;entryDx=0;entryDy=0;" parent="2CrDhLdBLynUwAJwVgot-1" source="2CrDhLdBLynUwAJwVgot-2" target="2CrDhLdBLynUwAJwVgot-34" edge="1">
          <mxGeometry width="50" height="50" relative="1" as="geometry">
            <mxPoint x="580" y="-650" as="sourcePoint" />
            <mxPoint x="630" y="-700" as="targetPoint" />
          </mxGeometry>
        </mxCell>
        <mxCell id="2CrDhLdBLynUwAJwVgot-66" value="" style="edgeStyle=elbowEdgeStyle;html=1;endArrow=block;endFill=0;endSize=12;verticalAlign=bottom;rounded=0;entryX=0.5;entryY=1;entryDx=0;entryDy=0;exitX=1;exitY=0.5;exitDx=0;exitDy=0;" parent="2CrDhLdBLynUwAJwVgot-1" edge="1">
          <mxGeometry width="160" relative="1" as="geometry">
            <mxPoint x="970" y="1000" as="sourcePoint" />
            <mxPoint x="550" y="875" as="targetPoint" />
            <Array as="points">
              <mxPoint x="1080" y="1340" />
            </Array>
          </mxGeometry>
        </mxCell>
      </root>
    </mxGraphModel>
  </diagram>
  <diagram name="Use Case 4" id="pfq4VLCW5WyZBZdEbRYp">
    <mxGraphModel dx="1434" dy="2013" grid="1" gridSize="10" guides="1" tooltips="1" connect="1" arrows="1" fold="1" page="1" pageScale="1" pageWidth="827" pageHeight="1169" math="0" shadow="0">
      <root>
        <mxCell id="szraK_7M1OWuxfIel24h-0" />
        <mxCell id="szraK_7M1OWuxfIel24h-1" parent="szraK_7M1OWuxfIel24h-0" />
        <mxCell id="szraK_7M1OWuxfIel24h-2" value="Farmer" style="shape=umlActor;verticalLabelPosition=bottom;verticalAlign=top;html=1;outlineConnect=0;rounded=1;" vertex="1" parent="szraK_7M1OWuxfIel24h-1">
          <mxGeometry x="350" y="160" width="30" height="60" as="geometry" />
        </mxCell>
        <mxCell id="szraK_7M1OWuxfIel24h-3" value="Fire Detection System" style="shape=umlFrame;whiteSpace=wrap;html=1;pointerEvents=0;recursiveResize=0;container=1;collapsible=0;width=160;rounded=1;" vertex="1" parent="szraK_7M1OWuxfIel24h-1">
          <mxGeometry x="500" y="50" width="280" height="470" as="geometry" />
        </mxCell>
        <mxCell id="szraK_7M1OWuxfIel24h-4" value="Sensor Alert Transmission" style="ellipse;whiteSpace=wrap;html=1;rounded=1;" vertex="1" parent="szraK_7M1OWuxfIel24h-3">
          <mxGeometry x="70" y="40" width="140" height="70" as="geometry" />
        </mxCell>
        <mxCell id="szraK_7M1OWuxfIel24h-5" value="Smoke Detection" style="ellipse;whiteSpace=wrap;html=1;rounded=1;" vertex="1" parent="szraK_7M1OWuxfIel24h-3">
          <mxGeometry x="70" y="128" width="140" height="70" as="geometry" />
        </mxCell>
        <mxCell id="szraK_7M1OWuxfIel24h-6" value="Automatic Sprinkler Activation" style="ellipse;whiteSpace=wrap;html=1;rounded=1;" vertex="1" parent="szraK_7M1OWuxfIel24h-3">
          <mxGeometry x="70" y="215" width="140" height="70" as="geometry" />
        </mxCell>
        <mxCell id="szraK_7M1OWuxfIel24h-8" value="Manual Sprinkler Activation" style="ellipse;whiteSpace=wrap;html=1;rounded=1;" vertex="1" parent="szraK_7M1OWuxfIel24h-3">
          <mxGeometry x="70" y="300" width="140" height="70" as="geometry" />
        </mxCell>
        <mxCell id="szraK_7M1OWuxfIel24h-7" value="Temperature Change Detection" style="ellipse;whiteSpace=wrap;html=1;rounded=1;" vertex="1" parent="szraK_7M1OWuxfIel24h-3">
          <mxGeometry x="70" y="390" width="140" height="70" as="geometry" />
        </mxCell>
        <mxCell id="szraK_7M1OWuxfIel24h-12" value="Alert Notification System" style="shape=umlFrame;whiteSpace=wrap;html=1;pointerEvents=0;recursiveResize=0;container=1;collapsible=0;width=160;rounded=1;" vertex="1" parent="szraK_7M1OWuxfIel24h-1">
          <mxGeometry x="500" y="-300" width="410" height="290" as="geometry" />
        </mxCell>
        <mxCell id="szraK_7M1OWuxfIel24h-13" value="Real-time Notifications" style="ellipse;whiteSpace=wrap;html=1;rounded=1;" vertex="1" parent="szraK_7M1OWuxfIel24h-12">
          <mxGeometry x="20" y="40" width="140" height="70" as="geometry" />
        </mxCell>
        <mxCell id="szraK_7M1OWuxfIel24h-14" value="Alert Details" style="ellipse;whiteSpace=wrap;html=1;rounded=1;" vertex="1" parent="szraK_7M1OWuxfIel24h-12">
          <mxGeometry x="240" y="40" width="140" height="70" as="geometry" />
        </mxCell>
        <mxCell id="szraK_7M1OWuxfIel24h-15" value="Custom Alarm Configuration" style="ellipse;whiteSpace=wrap;html=1;rounded=1;" vertex="1" parent="szraK_7M1OWuxfIel24h-12">
          <mxGeometry x="20" y="125" width="140" height="70" as="geometry" />
        </mxCell>
        <mxCell id="szraK_7M1OWuxfIel24h-16" value="Threshold Customization" style="ellipse;whiteSpace=wrap;html=1;rounded=1;" vertex="1" parent="szraK_7M1OWuxfIel24h-12">
          <mxGeometry x="20" y="210" width="140" height="70" as="geometry" />
        </mxCell>
        <mxCell id="szraK_7M1OWuxfIel24h-17" value="&amp;lt;&amp;lt;include&amp;gt;&amp;gt;" style="edgeStyle=none;html=1;endArrow=open;verticalAlign=bottom;dashed=1;labelBackgroundColor=none;rounded=1;exitX=1;exitY=0.5;exitDx=0;exitDy=0;entryX=0;entryY=0.5;entryDx=0;entryDy=0;" edge="1" parent="szraK_7M1OWuxfIel24h-12" source="szraK_7M1OWuxfIel24h-13" target="szraK_7M1OWuxfIel24h-14">
          <mxGeometry width="160" relative="1" as="geometry">
            <mxPoint x="150" y="120" as="sourcePoint" />
            <mxPoint x="310" y="120" as="targetPoint" />
          </mxGeometry>
        </mxCell>
        <mxCell id="szraK_7M1OWuxfIel24h-29" value="Data Management System" style="shape=umlFrame;whiteSpace=wrap;html=1;pointerEvents=0;recursiveResize=0;container=1;collapsible=0;width=180;height=30;rounded=1;" vertex="1" parent="szraK_7M1OWuxfIel24h-1">
          <mxGeometry x="500" y="640" width="430" height="130" as="geometry" />
        </mxCell>
        <mxCell id="szraK_7M1OWuxfIel24h-30" value="Sensor Data Storage" style="ellipse;whiteSpace=wrap;html=1;rounded=1;" vertex="1" parent="szraK_7M1OWuxfIel24h-29">
          <mxGeometry x="10" y="45" width="140" height="70" as="geometry" />
        </mxCell>
        <mxCell id="szraK_7M1OWuxfIel24h-31" value="Historical Data Visualization" style="ellipse;whiteSpace=wrap;html=1;rounded=1;" vertex="1" parent="szraK_7M1OWuxfIel24h-29">
          <mxGeometry x="280" y="45" width="140" height="70" as="geometry" />
        </mxCell>
        <mxCell id="szraK_7M1OWuxfIel24h-32" value="&amp;lt;&amp;lt;include&amp;gt;&amp;gt;" style="edgeStyle=none;html=1;endArrow=open;verticalAlign=bottom;dashed=1;labelBackgroundColor=none;rounded=1;exitX=1;exitY=0.5;exitDx=0;exitDy=0;" edge="1" parent="szraK_7M1OWuxfIel24h-29" source="szraK_7M1OWuxfIel24h-30" target="szraK_7M1OWuxfIel24h-31">
          <mxGeometry width="160" relative="1" as="geometry">
            <mxPoint x="-370" y="370" as="sourcePoint" />
            <mxPoint x="-210" y="370" as="targetPoint" />
          </mxGeometry>
        </mxCell>
        <mxCell id="szraK_7M1OWuxfIel24h-38" value="Agricultural Consultants" style="shape=umlActor;verticalLabelPosition=bottom;verticalAlign=top;html=1;outlineConnect=0;rounded=1;" vertex="1" parent="szraK_7M1OWuxfIel24h-1">
          <mxGeometry x="350" y="660" width="30" height="60" as="geometry" />
        </mxCell>
        <mxCell id="szraK_7M1OWuxfIel24h-39" value="" style="edgeStyle=none;html=1;endArrow=none;verticalAlign=bottom;rounded=1;entryX=0;entryY=0.5;entryDx=0;entryDy=0;" edge="1" parent="szraK_7M1OWuxfIel24h-1" source="szraK_7M1OWuxfIel24h-2" target="szraK_7M1OWuxfIel24h-5">
          <mxGeometry width="160" relative="1" as="geometry">
            <mxPoint x="270" y="330" as="sourcePoint" />
            <mxPoint x="720" y="250" as="targetPoint" />
          </mxGeometry>
        </mxCell>
        <mxCell id="szraK_7M1OWuxfIel24h-40" value="" style="edgeStyle=none;html=1;endArrow=none;verticalAlign=bottom;rounded=1;entryX=0;entryY=0.5;entryDx=0;entryDy=0;" edge="1" parent="szraK_7M1OWuxfIel24h-1" source="szraK_7M1OWuxfIel24h-2" target="szraK_7M1OWuxfIel24h-6">
          <mxGeometry width="160" relative="1" as="geometry">
            <mxPoint x="560" y="250" as="sourcePoint" />
            <mxPoint x="720" y="250" as="targetPoint" />
          </mxGeometry>
        </mxCell>
        <mxCell id="szraK_7M1OWuxfIel24h-41" value="" style="edgeStyle=none;html=1;endArrow=none;verticalAlign=bottom;rounded=1;entryX=0;entryY=0.5;entryDx=0;entryDy=0;" edge="1" parent="szraK_7M1OWuxfIel24h-1" source="szraK_7M1OWuxfIel24h-2" target="szraK_7M1OWuxfIel24h-7">
          <mxGeometry width="160" relative="1" as="geometry">
            <mxPoint x="560" y="250" as="sourcePoint" />
            <mxPoint x="720" y="250" as="targetPoint" />
          </mxGeometry>
        </mxCell>
        <mxCell id="szraK_7M1OWuxfIel24h-42" value="" style="edgeStyle=none;html=1;endArrow=none;verticalAlign=bottom;rounded=1;entryX=0;entryY=0.5;entryDx=0;entryDy=0;" edge="1" parent="szraK_7M1OWuxfIel24h-1" source="szraK_7M1OWuxfIel24h-2" target="szraK_7M1OWuxfIel24h-8">
          <mxGeometry width="160" relative="1" as="geometry">
            <mxPoint x="240" y="360" as="sourcePoint" />
            <mxPoint x="400" y="360" as="targetPoint" />
          </mxGeometry>
        </mxCell>
        <mxCell id="szraK_7M1OWuxfIel24h-49" value="" style="edgeStyle=none;html=1;endArrow=none;verticalAlign=bottom;rounded=1;entryX=0;entryY=0.5;entryDx=0;entryDy=0;" edge="1" parent="szraK_7M1OWuxfIel24h-1" source="szraK_7M1OWuxfIel24h-2" target="szraK_7M1OWuxfIel24h-13">
          <mxGeometry width="160" relative="1" as="geometry">
            <mxPoint x="-20" y="1060" as="sourcePoint" />
            <mxPoint x="340" y="30" as="targetPoint" />
          </mxGeometry>
        </mxCell>
        <mxCell id="szraK_7M1OWuxfIel24h-50" value="" style="edgeStyle=none;html=1;endArrow=none;verticalAlign=bottom;rounded=1;entryX=0;entryY=0.5;entryDx=0;entryDy=0;" edge="1" parent="szraK_7M1OWuxfIel24h-1" source="szraK_7M1OWuxfIel24h-2" target="szraK_7M1OWuxfIel24h-15">
          <mxGeometry width="160" relative="1" as="geometry">
            <mxPoint x="80" y="180" as="sourcePoint" />
            <mxPoint x="240" y="180" as="targetPoint" />
          </mxGeometry>
        </mxCell>
        <mxCell id="szraK_7M1OWuxfIel24h-51" value="" style="edgeStyle=none;html=1;endArrow=none;verticalAlign=bottom;rounded=1;entryX=0;entryY=0.5;entryDx=0;entryDy=0;" edge="1" parent="szraK_7M1OWuxfIel24h-1" source="szraK_7M1OWuxfIel24h-2" target="szraK_7M1OWuxfIel24h-16">
          <mxGeometry width="160" relative="1" as="geometry">
            <mxPoint x="100" y="240" as="sourcePoint" />
            <mxPoint x="250" y="240" as="targetPoint" />
          </mxGeometry>
        </mxCell>
        <mxCell id="szraK_7M1OWuxfIel24h-54" value="" style="edgeStyle=none;html=1;endArrow=none;verticalAlign=bottom;rounded=1;entryX=0;entryY=0.5;entryDx=0;entryDy=0;" edge="1" parent="szraK_7M1OWuxfIel24h-1" source="szraK_7M1OWuxfIel24h-38" target="szraK_7M1OWuxfIel24h-30">
          <mxGeometry width="160" relative="1" as="geometry">
            <mxPoint x="1040" y="1410" as="sourcePoint" />
            <mxPoint x="1200" y="1410" as="targetPoint" />
          </mxGeometry>
        </mxCell>
        <mxCell id="szraK_7M1OWuxfIel24h-55" value="&amp;lt;&amp;lt;include&amp;gt;&amp;gt;" style="edgeStyle=none;html=1;endArrow=open;verticalAlign=bottom;dashed=1;labelBackgroundColor=none;rounded=1;entryX=0.736;entryY=0.971;entryDx=0;entryDy=0;exitX=1;exitY=0;exitDx=0;exitDy=0;entryPerimeter=0;" edge="1" parent="szraK_7M1OWuxfIel24h-1" source="szraK_7M1OWuxfIel24h-4" target="szraK_7M1OWuxfIel24h-13">
          <mxGeometry x="-0.0658" y="-30" width="160" relative="1" as="geometry">
            <mxPoint x="700.5" y="90.13" as="sourcePoint" />
            <mxPoint x="699.9974746830585" y="-200.12126265847076" as="targetPoint" />
            <Array as="points">
              <mxPoint x="689" y="-160" />
            </Array>
            <mxPoint as="offset" />
          </mxGeometry>
        </mxCell>
        <mxCell id="szraK_7M1OWuxfIel24h-57" value="" style="html=1;endArrow=block;endFill=0;endSize=12;verticalAlign=bottom;rounded=1;exitX=1;exitY=1;exitDx=0;exitDy=0;entryX=1;entryY=0;entryDx=0;entryDy=0;" edge="1" parent="szraK_7M1OWuxfIel24h-1" source="szraK_7M1OWuxfIel24h-7" target="szraK_7M1OWuxfIel24h-30">
          <mxGeometry width="160" relative="1" as="geometry">
            <mxPoint x="980" y="580" as="sourcePoint" />
            <mxPoint x="1140" y="580" as="targetPoint" />
            <Array as="points">
              <mxPoint x="690" y="580" />
              <mxPoint x="690" y="680" />
            </Array>
          </mxGeometry>
        </mxCell>
        <mxCell id="szraK_7M1OWuxfIel24h-60" value="" style="endArrow=none;html=1;rounded=0;entryX=0;entryY=0.5;entryDx=0;entryDy=0;" edge="1" parent="szraK_7M1OWuxfIel24h-1" source="szraK_7M1OWuxfIel24h-2" target="szraK_7M1OWuxfIel24h-30">
          <mxGeometry width="50" height="50" relative="1" as="geometry">
            <mxPoint x="540" y="990" as="sourcePoint" />
            <mxPoint x="590" y="940" as="targetPoint" />
          </mxGeometry>
        </mxCell>
      </root>
    </mxGraphModel>
  </diagram>
  <diagram name="Use Case 3" id="73JqfEt5-0emH8txVhGt">
    <mxGraphModel dx="1434" dy="836" grid="1" gridSize="10" guides="1" tooltips="1" connect="1" arrows="1" fold="1" page="1" pageScale="1" pageWidth="827" pageHeight="1169" math="0" shadow="0">
      <root>
        <mxCell id="TazmKsOA4Q3iYT7AACys-0" />
        <mxCell id="TazmKsOA4Q3iYT7AACys-1" parent="TazmKsOA4Q3iYT7AACys-0" />
        <mxCell id="TazmKsOA4Q3iYT7AACys-2" value="Farmer" style="shape=umlActor;verticalLabelPosition=bottom;verticalAlign=top;html=1;outlineConnect=0;rounded=1;" parent="TazmKsOA4Q3iYT7AACys-1" vertex="1">
          <mxGeometry x="260" y="1090" width="30" height="60" as="geometry" />
        </mxCell>
        <mxCell id="TazmKsOA4Q3iYT7AACys-9" value="User Management System" style="shape=umlFrame;whiteSpace=wrap;html=1;pointerEvents=0;recursiveResize=0;container=1;collapsible=0;width=180;height=30;rounded=1;" parent="TazmKsOA4Q3iYT7AACys-1" vertex="1">
          <mxGeometry x="500" y="1010" width="280" height="220" as="geometry" />
        </mxCell>
        <mxCell id="TazmKsOA4Q3iYT7AACys-10" value="Role-based Access Control" style="ellipse;whiteSpace=wrap;html=1;rounded=1;" parent="TazmKsOA4Q3iYT7AACys-9" vertex="1">
          <mxGeometry x="70" y="50" width="140" height="70" as="geometry" />
        </mxCell>
        <mxCell id="TazmKsOA4Q3iYT7AACys-11" value="User Management" style="ellipse;whiteSpace=wrap;html=1;rounded=1;" parent="TazmKsOA4Q3iYT7AACys-9" vertex="1">
          <mxGeometry x="70" y="138" width="140" height="70" as="geometry" />
        </mxCell>
        <mxCell id="TazmKsOA4Q3iYT7AACys-43" value="" style="edgeStyle=none;html=1;endArrow=none;verticalAlign=bottom;rounded=1;entryX=0;entryY=0.5;entryDx=0;entryDy=0;" parent="TazmKsOA4Q3iYT7AACys-1" source="TazmKsOA4Q3iYT7AACys-2" target="TazmKsOA4Q3iYT7AACys-10" edge="1">
          <mxGeometry width="160" relative="1" as="geometry">
            <mxPoint x="580" y="890" as="sourcePoint" />
            <mxPoint x="740" y="890" as="targetPoint" />
          </mxGeometry>
        </mxCell>
        <mxCell id="TazmKsOA4Q3iYT7AACys-44" value="" style="edgeStyle=none;html=1;endArrow=none;verticalAlign=bottom;rounded=1;entryX=0;entryY=0.5;entryDx=0;entryDy=0;" parent="TazmKsOA4Q3iYT7AACys-1" source="TazmKsOA4Q3iYT7AACys-2" target="TazmKsOA4Q3iYT7AACys-11" edge="1">
          <mxGeometry width="160" relative="1" as="geometry">
            <mxPoint x="580" y="890" as="sourcePoint" />
            <mxPoint x="740" y="890" as="targetPoint" />
          </mxGeometry>
        </mxCell>
      </root>
    </mxGraphModel>
  </diagram>
  <diagram name="Use Case 2" id="VekgaGnt7j_Q2t9qdu4P">
    <mxGraphModel dx="1434" dy="836" grid="1" gridSize="10" guides="1" tooltips="1" connect="1" arrows="1" fold="1" page="1" pageScale="1" pageWidth="827" pageHeight="1169" math="0" shadow="0">
      <root>
        <mxCell id="SbmWa8M9F4MlskCvyWw8-0" />
        <mxCell id="SbmWa8M9F4MlskCvyWw8-1" parent="SbmWa8M9F4MlskCvyWw8-0" />
        <mxCell id="SbmWa8M9F4MlskCvyWw8-2" value="Farmer" style="shape=umlActor;verticalLabelPosition=bottom;verticalAlign=top;html=1;outlineConnect=0;rounded=1;" parent="SbmWa8M9F4MlskCvyWw8-1" vertex="1">
          <mxGeometry x="170" y="1240" width="30" height="60" as="geometry" />
        </mxCell>
        <mxCell id="SbmWa8M9F4MlskCvyWw8-12" value="Alert Notification System" style="shape=umlFrame;whiteSpace=wrap;html=1;pointerEvents=0;recursiveResize=0;container=1;collapsible=0;width=160;rounded=1;" parent="SbmWa8M9F4MlskCvyWw8-1" vertex="1">
          <mxGeometry x="490" y="925" width="410" height="290" as="geometry" />
        </mxCell>
        <mxCell id="SbmWa8M9F4MlskCvyWw8-13" value="Real-time Notifications" style="ellipse;whiteSpace=wrap;html=1;rounded=1;" parent="SbmWa8M9F4MlskCvyWw8-12" vertex="1">
          <mxGeometry x="20" y="40" width="140" height="70" as="geometry" />
        </mxCell>
        <mxCell id="SbmWa8M9F4MlskCvyWw8-14" value="Alert Details" style="ellipse;whiteSpace=wrap;html=1;rounded=1;" parent="SbmWa8M9F4MlskCvyWw8-12" vertex="1">
          <mxGeometry x="240" y="40" width="140" height="70" as="geometry" />
        </mxCell>
        <mxCell id="SbmWa8M9F4MlskCvyWw8-15" value="Custom Alarm Configuration" style="ellipse;whiteSpace=wrap;html=1;rounded=1;" parent="SbmWa8M9F4MlskCvyWw8-12" vertex="1">
          <mxGeometry x="20" y="125" width="140" height="70" as="geometry" />
        </mxCell>
        <mxCell id="SbmWa8M9F4MlskCvyWw8-16" value="Threshold Customization" style="ellipse;whiteSpace=wrap;html=1;rounded=1;" parent="SbmWa8M9F4MlskCvyWw8-12" vertex="1">
          <mxGeometry x="20" y="210" width="140" height="70" as="geometry" />
        </mxCell>
        <mxCell id="SbmWa8M9F4MlskCvyWw8-17" value="&amp;lt;&amp;lt;include&amp;gt;&amp;gt;" style="edgeStyle=none;html=1;endArrow=open;verticalAlign=bottom;dashed=1;labelBackgroundColor=none;rounded=1;exitX=1;exitY=0.5;exitDx=0;exitDy=0;entryX=0;entryY=0.5;entryDx=0;entryDy=0;" parent="SbmWa8M9F4MlskCvyWw8-12" source="SbmWa8M9F4MlskCvyWw8-13" target="SbmWa8M9F4MlskCvyWw8-14" edge="1">
          <mxGeometry width="160" relative="1" as="geometry">
            <mxPoint x="150" y="120" as="sourcePoint" />
            <mxPoint x="310" y="120" as="targetPoint" />
          </mxGeometry>
        </mxCell>
        <mxCell id="SbmWa8M9F4MlskCvyWw8-18" value="Animal Detection System" style="shape=umlFrame;whiteSpace=wrap;html=1;pointerEvents=0;recursiveResize=0;container=1;collapsible=0;width=160;rounded=1;" parent="SbmWa8M9F4MlskCvyWw8-1" vertex="1">
          <mxGeometry x="490" y="1260" width="280" height="400" as="geometry" />
        </mxCell>
        <mxCell id="SbmWa8M9F4MlskCvyWw8-19" value="Manual Repellent Activation" style="ellipse;whiteSpace=wrap;html=1;rounded=1;" parent="SbmWa8M9F4MlskCvyWw8-18" vertex="1">
          <mxGeometry x="70" y="40" width="140" height="70" as="geometry" />
        </mxCell>
        <mxCell id="SbmWa8M9F4MlskCvyWw8-20" value="Perimeter Animal Detection" style="ellipse;whiteSpace=wrap;html=1;rounded=1;" parent="SbmWa8M9F4MlskCvyWw8-18" vertex="1">
          <mxGeometry x="70" y="128" width="140" height="70" as="geometry" />
        </mxCell>
        <mxCell id="SbmWa8M9F4MlskCvyWw8-21" value="Animal Detection Alert" style="ellipse;whiteSpace=wrap;html=1;rounded=1;" parent="SbmWa8M9F4MlskCvyWw8-18" vertex="1">
          <mxGeometry x="70" y="215" width="140" height="70" as="geometry" />
        </mxCell>
        <mxCell id="SbmWa8M9F4MlskCvyWw8-22" value="Automatic Animal Repellent Activation" style="ellipse;whiteSpace=wrap;html=1;rounded=1;" parent="SbmWa8M9F4MlskCvyWw8-18" vertex="1">
          <mxGeometry x="70" y="303" width="140" height="70" as="geometry" />
        </mxCell>
        <mxCell id="SbmWa8M9F4MlskCvyWw8-45" value="" style="edgeStyle=none;html=1;endArrow=none;verticalAlign=bottom;rounded=1;entryX=0;entryY=0.5;entryDx=0;entryDy=0;" parent="SbmWa8M9F4MlskCvyWw8-1" source="SbmWa8M9F4MlskCvyWw8-2" target="SbmWa8M9F4MlskCvyWw8-19" edge="1">
          <mxGeometry width="160" relative="1" as="geometry">
            <mxPoint x="300" y="1580" as="sourcePoint" />
            <mxPoint x="460" y="1580" as="targetPoint" />
          </mxGeometry>
        </mxCell>
        <mxCell id="SbmWa8M9F4MlskCvyWw8-46" value="" style="edgeStyle=none;html=1;endArrow=none;verticalAlign=bottom;rounded=1;entryX=0;entryY=0.5;entryDx=0;entryDy=0;" parent="SbmWa8M9F4MlskCvyWw8-1" source="SbmWa8M9F4MlskCvyWw8-2" target="SbmWa8M9F4MlskCvyWw8-20" edge="1">
          <mxGeometry width="160" relative="1" as="geometry">
            <mxPoint x="220" y="1520" as="sourcePoint" />
            <mxPoint x="380" y="1520" as="targetPoint" />
          </mxGeometry>
        </mxCell>
        <mxCell id="SbmWa8M9F4MlskCvyWw8-47" value="" style="edgeStyle=none;html=1;endArrow=none;verticalAlign=bottom;rounded=1;entryX=0;entryY=0.5;entryDx=0;entryDy=0;" parent="SbmWa8M9F4MlskCvyWw8-1" source="SbmWa8M9F4MlskCvyWw8-2" target="SbmWa8M9F4MlskCvyWw8-21" edge="1">
          <mxGeometry width="160" relative="1" as="geometry">
            <mxPoint x="160" y="1510" as="sourcePoint" />
            <mxPoint x="320" y="1510" as="targetPoint" />
          </mxGeometry>
        </mxCell>
        <mxCell id="SbmWa8M9F4MlskCvyWw8-48" value="" style="edgeStyle=none;html=1;endArrow=none;verticalAlign=bottom;rounded=1;entryX=0;entryY=0.5;entryDx=0;entryDy=0;" parent="SbmWa8M9F4MlskCvyWw8-1" source="SbmWa8M9F4MlskCvyWw8-2" target="SbmWa8M9F4MlskCvyWw8-22" edge="1">
          <mxGeometry width="160" relative="1" as="geometry">
            <mxPoint x="260" y="1770" as="sourcePoint" />
            <mxPoint x="420" y="1770" as="targetPoint" />
          </mxGeometry>
        </mxCell>
        <mxCell id="SbmWa8M9F4MlskCvyWw8-49" value="" style="edgeStyle=none;html=1;endArrow=none;verticalAlign=bottom;rounded=1;entryX=0;entryY=0.5;entryDx=0;entryDy=0;" parent="SbmWa8M9F4MlskCvyWw8-1" source="SbmWa8M9F4MlskCvyWw8-2" target="SbmWa8M9F4MlskCvyWw8-13" edge="1">
          <mxGeometry width="160" relative="1" as="geometry">
            <mxPoint x="-20" y="1060" as="sourcePoint" />
            <mxPoint x="340" y="30" as="targetPoint" />
          </mxGeometry>
        </mxCell>
        <mxCell id="SbmWa8M9F4MlskCvyWw8-50" value="" style="edgeStyle=none;html=1;endArrow=none;verticalAlign=bottom;rounded=1;entryX=0;entryY=0.5;entryDx=0;entryDy=0;" parent="SbmWa8M9F4MlskCvyWw8-1" source="SbmWa8M9F4MlskCvyWw8-2" target="SbmWa8M9F4MlskCvyWw8-15" edge="1">
          <mxGeometry width="160" relative="1" as="geometry">
            <mxPoint x="80" y="180" as="sourcePoint" />
            <mxPoint x="240" y="180" as="targetPoint" />
          </mxGeometry>
        </mxCell>
        <mxCell id="SbmWa8M9F4MlskCvyWw8-51" value="" style="edgeStyle=none;html=1;endArrow=none;verticalAlign=bottom;rounded=1;entryX=0;entryY=0.5;entryDx=0;entryDy=0;" parent="SbmWa8M9F4MlskCvyWw8-1" source="SbmWa8M9F4MlskCvyWw8-2" target="SbmWa8M9F4MlskCvyWw8-16" edge="1">
          <mxGeometry width="160" relative="1" as="geometry">
            <mxPoint x="100" y="240" as="sourcePoint" />
            <mxPoint x="250" y="240" as="targetPoint" />
          </mxGeometry>
        </mxCell>
        <mxCell id="SbmWa8M9F4MlskCvyWw8-56" value="&amp;lt;&amp;lt;include&amp;gt;&amp;gt;" style="html=1;endArrow=open;verticalAlign=bottom;dashed=1;labelBackgroundColor=none;rounded=1;exitX=1;exitY=0.5;exitDx=0;exitDy=0;entryX=1;entryY=1;entryDx=0;entryDy=0;" parent="SbmWa8M9F4MlskCvyWw8-1" source="SbmWa8M9F4MlskCvyWw8-21" target="SbmWa8M9F4MlskCvyWw8-13" edge="1">
          <mxGeometry x="-0.0455" y="-30" width="160" relative="1" as="geometry">
            <mxPoint x="921.5" y="1739.75" as="sourcePoint" />
            <mxPoint x="889.9974746830585" y="-269.99873734152925" as="targetPoint" />
            <Array as="points">
              <mxPoint x="820" y="1510" />
              <mxPoint x="820" y="1140" />
            </Array>
            <mxPoint as="offset" />
          </mxGeometry>
        </mxCell>
      </root>
    </mxGraphModel>
  </diagram>
  <diagram name="Use Case 1" id="drOs047LdtA2dPTO9Y7D">
    <mxGraphModel dx="1434" dy="836" grid="1" gridSize="10" guides="1" tooltips="1" connect="1" arrows="1" fold="1" page="1" pageScale="1" pageWidth="827" pageHeight="1169" math="0" shadow="0">
      <root>
        <mxCell id="iWYLpE62kDxLGJJqKLCl-0" />
        <mxCell id="iWYLpE62kDxLGJJqKLCl-1" parent="iWYLpE62kDxLGJJqKLCl-0" />
        <mxCell id="iWYLpE62kDxLGJJqKLCl-2" value="Farmer" style="shape=umlActor;verticalLabelPosition=bottom;verticalAlign=top;html=1;outlineConnect=0;rounded=1;" parent="iWYLpE62kDxLGJJqKLCl-1" vertex="1">
          <mxGeometry x="120" y="1210" width="30" height="60" as="geometry" />
        </mxCell>
        <mxCell id="iWYLpE62kDxLGJJqKLCl-12" value="Alert Notification System" style="shape=umlFrame;whiteSpace=wrap;html=1;pointerEvents=0;recursiveResize=0;container=1;collapsible=0;width=160;rounded=1;" parent="iWYLpE62kDxLGJJqKLCl-1" vertex="1">
          <mxGeometry x="490" y="1370" width="410" height="290" as="geometry" />
        </mxCell>
        <mxCell id="iWYLpE62kDxLGJJqKLCl-13" value="Real-time Notifications" style="ellipse;whiteSpace=wrap;html=1;rounded=1;" parent="iWYLpE62kDxLGJJqKLCl-12" vertex="1">
          <mxGeometry x="20" y="40" width="140" height="70" as="geometry" />
        </mxCell>
        <mxCell id="iWYLpE62kDxLGJJqKLCl-14" value="Alert Details" style="ellipse;whiteSpace=wrap;html=1;rounded=1;" parent="iWYLpE62kDxLGJJqKLCl-12" vertex="1">
          <mxGeometry x="240" y="40" width="140" height="70" as="geometry" />
        </mxCell>
        <mxCell id="iWYLpE62kDxLGJJqKLCl-15" value="Custom Alarm Configuration" style="ellipse;whiteSpace=wrap;html=1;rounded=1;" parent="iWYLpE62kDxLGJJqKLCl-12" vertex="1">
          <mxGeometry x="20" y="125" width="140" height="70" as="geometry" />
        </mxCell>
        <mxCell id="iWYLpE62kDxLGJJqKLCl-16" value="Threshold Customization" style="ellipse;whiteSpace=wrap;html=1;rounded=1;" parent="iWYLpE62kDxLGJJqKLCl-12" vertex="1">
          <mxGeometry x="20" y="210" width="140" height="70" as="geometry" />
        </mxCell>
        <mxCell id="iWYLpE62kDxLGJJqKLCl-17" value="&amp;lt;&amp;lt;include&amp;gt;&amp;gt;" style="edgeStyle=none;html=1;endArrow=open;verticalAlign=bottom;dashed=1;labelBackgroundColor=none;rounded=1;exitX=1;exitY=0.5;exitDx=0;exitDy=0;entryX=0;entryY=0.5;entryDx=0;entryDy=0;" parent="iWYLpE62kDxLGJJqKLCl-12" source="iWYLpE62kDxLGJJqKLCl-13" target="iWYLpE62kDxLGJJqKLCl-14" edge="1">
          <mxGeometry width="160" relative="1" as="geometry">
            <mxPoint x="150" y="120" as="sourcePoint" />
            <mxPoint x="310" y="120" as="targetPoint" />
          </mxGeometry>
        </mxCell>
        <mxCell id="iWYLpE62kDxLGJJqKLCl-29" value="Data Management System" style="shape=umlFrame;whiteSpace=wrap;html=1;pointerEvents=0;recursiveResize=0;container=1;collapsible=0;width=180;height=30;rounded=1;" parent="iWYLpE62kDxLGJJqKLCl-1" vertex="1">
          <mxGeometry x="480" y="900" width="430" height="140" as="geometry" />
        </mxCell>
        <mxCell id="iWYLpE62kDxLGJJqKLCl-30" value="Sensor Data Storage" style="ellipse;whiteSpace=wrap;html=1;rounded=1;" parent="iWYLpE62kDxLGJJqKLCl-29" vertex="1">
          <mxGeometry x="10" y="45" width="140" height="70" as="geometry" />
        </mxCell>
        <mxCell id="iWYLpE62kDxLGJJqKLCl-31" value="Historical Data Visualization" style="ellipse;whiteSpace=wrap;html=1;rounded=1;" parent="iWYLpE62kDxLGJJqKLCl-29" vertex="1">
          <mxGeometry x="280" y="45" width="140" height="70" as="geometry" />
        </mxCell>
        <mxCell id="iWYLpE62kDxLGJJqKLCl-32" value="&amp;lt;&amp;lt;include&amp;gt;&amp;gt;" style="edgeStyle=none;html=1;endArrow=open;verticalAlign=bottom;dashed=1;labelBackgroundColor=none;rounded=1;exitX=1;exitY=0.5;exitDx=0;exitDy=0;" parent="iWYLpE62kDxLGJJqKLCl-29" source="iWYLpE62kDxLGJJqKLCl-30" target="iWYLpE62kDxLGJJqKLCl-31" edge="1">
          <mxGeometry width="160" relative="1" as="geometry">
            <mxPoint x="-370" y="370" as="sourcePoint" />
            <mxPoint x="-210" y="370" as="targetPoint" />
          </mxGeometry>
        </mxCell>
        <mxCell id="iWYLpE62kDxLGJJqKLCl-38" value="Agricultural Consultants" style="shape=umlActor;verticalLabelPosition=bottom;verticalAlign=top;html=1;outlineConnect=0;rounded=1;" parent="iWYLpE62kDxLGJJqKLCl-1" vertex="1">
          <mxGeometry x="120" y="1010" width="30" height="60" as="geometry" />
        </mxCell>
        <mxCell id="iWYLpE62kDxLGJJqKLCl-49" value="" style="edgeStyle=none;html=1;endArrow=none;verticalAlign=bottom;rounded=1;entryX=0;entryY=0.5;entryDx=0;entryDy=0;" parent="iWYLpE62kDxLGJJqKLCl-1" source="iWYLpE62kDxLGJJqKLCl-2" target="iWYLpE62kDxLGJJqKLCl-13" edge="1">
          <mxGeometry width="160" relative="1" as="geometry">
            <mxPoint x="-20" y="1060" as="sourcePoint" />
            <mxPoint x="340" y="30" as="targetPoint" />
          </mxGeometry>
        </mxCell>
        <mxCell id="iWYLpE62kDxLGJJqKLCl-50" value="" style="edgeStyle=none;html=1;endArrow=none;verticalAlign=bottom;rounded=1;entryX=0;entryY=0.5;entryDx=0;entryDy=0;" parent="iWYLpE62kDxLGJJqKLCl-1" source="iWYLpE62kDxLGJJqKLCl-2" target="iWYLpE62kDxLGJJqKLCl-15" edge="1">
          <mxGeometry width="160" relative="1" as="geometry">
            <mxPoint x="80" y="180" as="sourcePoint" />
            <mxPoint x="240" y="180" as="targetPoint" />
          </mxGeometry>
        </mxCell>
        <mxCell id="iWYLpE62kDxLGJJqKLCl-51" value="" style="edgeStyle=none;html=1;endArrow=none;verticalAlign=bottom;rounded=1;entryX=0;entryY=0.5;entryDx=0;entryDy=0;" parent="iWYLpE62kDxLGJJqKLCl-1" source="iWYLpE62kDxLGJJqKLCl-2" target="iWYLpE62kDxLGJJqKLCl-16" edge="1">
          <mxGeometry width="160" relative="1" as="geometry">
            <mxPoint x="100" y="240" as="sourcePoint" />
            <mxPoint x="250" y="240" as="targetPoint" />
          </mxGeometry>
        </mxCell>
        <mxCell id="iWYLpE62kDxLGJJqKLCl-54" value="" style="edgeStyle=none;html=1;endArrow=none;verticalAlign=bottom;rounded=1;entryX=0;entryY=0.5;entryDx=0;entryDy=0;" parent="iWYLpE62kDxLGJJqKLCl-1" source="iWYLpE62kDxLGJJqKLCl-38" target="iWYLpE62kDxLGJJqKLCl-30" edge="1">
          <mxGeometry width="160" relative="1" as="geometry">
            <mxPoint x="1040" y="1410" as="sourcePoint" />
            <mxPoint x="1200" y="1410" as="targetPoint" />
          </mxGeometry>
        </mxCell>
        <mxCell id="iWYLpE62kDxLGJJqKLCl-60" value="" style="endArrow=none;html=1;rounded=0;entryX=0;entryY=0.5;entryDx=0;entryDy=0;" parent="iWYLpE62kDxLGJJqKLCl-1" source="iWYLpE62kDxLGJJqKLCl-2" target="iWYLpE62kDxLGJJqKLCl-30" edge="1">
          <mxGeometry width="50" height="50" relative="1" as="geometry">
            <mxPoint x="540" y="990" as="sourcePoint" />
            <mxPoint x="590" y="940" as="targetPoint" />
          </mxGeometry>
        </mxCell>
        <mxCell id="iWYLpE62kDxLGJJqKLCl-61" value="Soil Moisture Monitoring System" style="shape=umlFrame;whiteSpace=wrap;html=1;pointerEvents=0;recursiveResize=0;container=1;collapsible=0;width=180;height=30;rounded=1;" parent="iWYLpE62kDxLGJJqKLCl-1" vertex="1">
          <mxGeometry x="490" y="1110" width="280" height="220" as="geometry" />
        </mxCell>
        <mxCell id="iWYLpE62kDxLGJJqKLCl-62" value="Soil Moisture Alert" style="ellipse;whiteSpace=wrap;html=1;rounded=1;" parent="iWYLpE62kDxLGJJqKLCl-61" vertex="1">
          <mxGeometry x="70" y="120" width="140" height="70" as="geometry" />
        </mxCell>
        <mxCell id="iWYLpE62kDxLGJJqKLCl-63" value="Soilt Moisture Monitoring" style="ellipse;whiteSpace=wrap;html=1;rounded=1;" parent="iWYLpE62kDxLGJJqKLCl-61" vertex="1">
          <mxGeometry x="70" y="40" width="140" height="70" as="geometry" />
        </mxCell>
        <mxCell id="iWYLpE62kDxLGJJqKLCl-64" value="" style="edgeStyle=none;html=1;endArrow=none;verticalAlign=bottom;rounded=0;entryX=0;entryY=0.5;entryDx=0;entryDy=0;" parent="iWYLpE62kDxLGJJqKLCl-1" source="iWYLpE62kDxLGJJqKLCl-2" target="iWYLpE62kDxLGJJqKLCl-62" edge="1">
          <mxGeometry width="160" relative="1" as="geometry">
            <mxPoint x="480" y="1740" as="sourcePoint" />
            <mxPoint x="640" y="1740" as="targetPoint" />
          </mxGeometry>
        </mxCell>
        <mxCell id="iWYLpE62kDxLGJJqKLCl-65" value="" style="edgeStyle=none;html=1;endArrow=none;verticalAlign=bottom;rounded=0;entryX=0;entryY=0.5;entryDx=0;entryDy=0;" parent="iWYLpE62kDxLGJJqKLCl-1" source="iWYLpE62kDxLGJJqKLCl-2" target="iWYLpE62kDxLGJJqKLCl-63" edge="1">
          <mxGeometry width="160" relative="1" as="geometry">
            <mxPoint x="90" y="1620" as="sourcePoint" />
            <mxPoint x="250" y="1620" as="targetPoint" />
          </mxGeometry>
        </mxCell>
        <mxCell id="iWYLpE62kDxLGJJqKLCl-66" value="" style="html=1;endArrow=block;endFill=0;endSize=12;verticalAlign=bottom;rounded=0;entryX=0.5;entryY=1;entryDx=0;entryDy=0;exitX=1;exitY=0.5;exitDx=0;exitDy=0;" parent="iWYLpE62kDxLGJJqKLCl-1" source="iWYLpE62kDxLGJJqKLCl-63" target="iWYLpE62kDxLGJJqKLCl-30" edge="1">
          <mxGeometry width="160" relative="1" as="geometry">
            <mxPoint x="970" y="1000" as="sourcePoint" />
            <mxPoint x="1130" y="1000" as="targetPoint" />
            <Array as="points">
              <mxPoint x="840" y="1185" />
              <mxPoint x="840" y="1080" />
              <mxPoint x="560" y="1080" />
              <mxPoint x="560" y="1040" />
            </Array>
          </mxGeometry>
        </mxCell>
        <mxCell id="iWYLpE62kDxLGJJqKLCl-67" value="&amp;lt;&amp;lt;include&amp;gt;&amp;gt;" style="html=1;endArrow=open;verticalAlign=bottom;dashed=1;labelBackgroundColor=none;rounded=0;exitX=1;exitY=0.5;exitDx=0;exitDy=0;" parent="iWYLpE62kDxLGJJqKLCl-1" source="iWYLpE62kDxLGJJqKLCl-62" target="iWYLpE62kDxLGJJqKLCl-13" edge="1">
          <mxGeometry x="0.227" y="-19" width="160" relative="1" as="geometry">
            <mxPoint x="840" y="1410" as="sourcePoint" />
            <mxPoint x="980" y="70" as="targetPoint" />
            <Array as="points">
              <mxPoint x="760" y="1265" />
              <mxPoint x="760" y="1350" />
            </Array>
            <mxPoint as="offset" />
          </mxGeometry>
        </mxCell>
      </root>
    </mxGraphModel>
  </diagram>
</mxfile>
